<svg width="18" height="18" viewBox="0 0 18 18" fill="none" xmlns="http://www.w3.org/2000/svg">
<path fill-rule="evenodd" clip-rule="evenodd" d="M5 4C6.10457 4 7 3.10457 7 2C7 0.895431 6.10457 0 5 0C3.89543 0 3 0.895431 3 2C3 3.10457 3.89543 4 5 4ZM13 4C14.1046 4 15 3.10457 15 2C15 0.895431 14.1046 0 13 0C11.8954 0 11 0.895431 11 2C11 3.10457 11.8954 4 13 4ZM7 9C7 10.1046 6.10457 11 5 11C3.89543 11 3 10.1046 3 9C3 7.89543 3.89543 7 5 7C6.10457 7 7 7.89543 7 9ZM13 11C14.1046 11 15 10.1046 15 9C15 7.89543 14.1046 7 13 7C11.8954 7 11 7.89543 11 9C11 10.1046 11.8954 11 13 11ZM7 16C7 17.1046 6.10457 18 5 18C3.89543 18 3 17.1046 3 16C3 14.8954 3.89543 14 5 14C6.10457 14 7 14.8954 7 16ZM13 18C14.1046 18 15 17.1046 15 16C15 14.8954 14.1046 14 13 14C11.8954 14 11 14.8954 11 16C11 17.1046 11.8954 18 13 18Z" fill="#3A3A3C"/>
</svg>
