<svg xmlns="http://www.w3.org/2000/svg" width="23.54" height="23.54" viewBox="0 0 23.54 23.54">
  <g id="Group_3211" data-name="Group 3211" transform="translate(-245 -74)">
    <circle id="Oval" cx="11.77" cy="11.77" r="11.77" transform="translate(245 74)" fill="rgba(84,84,88,0.65)"/>
    <path id="Symbol" d="M1.29-.92a.619.619,0,0,0,0,.855.623.623,0,0,0,.855,0L4.271-2.182,6.393-.065a.61.61,0,0,0,.855,0,.614.614,0,0,0,0-.855L5.135-3.041,7.252-5.163a.614.614,0,0,0,0-.855.61.61,0,0,0-.855,0L4.271-3.906,2.149-6.027a.623.623,0,0,0-.855,0,.624.624,0,0,0,0,.86L3.411-3.041Z" transform="translate(252.879 89.195)" fill="rgba(235,235,245,0.6)"/>
  </g>
</svg>
