<svg width="31" height="30" viewBox="0 0 31 30" fill="none" xmlns="http://www.w3.org/2000/svg">
<g clip-path="url(#clip0)">
<path fill-rule="evenodd" clip-rule="evenodd" d="M19.5743 23.2955C19.5532 23.4927 19.4992 23.6141 19.4537 23.6833H10.0715C10.0268 23.615 9.9729 23.4944 9.95098 23.2955C9.89787 22.7914 9.43509 12.2316 9.26312 8.24775H20.1964C20.0724 11.478 19.6307 22.7703 19.5743 23.2955ZM12.4349 5.97244C12.4349 5.701 12.7089 5.4793 13.0461 5.4793H16.4786C16.8175 5.4793 17.0915 5.701 17.0915 5.97244V6.46726H12.4349V5.97244ZM18.9113 6.46061V6.12343C18.9113 4.95255 17.9638 4 16.7988 4H12.7282C11.5632 4 10.6157 4.95255 10.6157 6.12343V6.46061H6.54419V8.24769H7.48156L8.18291 23.8569C8.1964 23.9226 8.52853 25.472 9.87727 25.472H19.6481C21.0347 25.472 21.3492 23.824 21.3534 23.7793C21.7015 19.9084 22.0126 8.24769 22.0126 8.24769H22.982V6.46061H18.9113ZM18.554 9.3529H16.9414L16.5082 22.6582H18.1216L18.554 9.3529ZM13.9562 22.6582H15.5688V9.3529H13.9562V22.6582ZM11.4029 22.6582H13.0171L12.5889 9.47344L12.5847 9.3529H10.9713L11.3987 22.5369L11.4029 22.6582Z" fill="white"/>
</g>
<rect x="0.0130615" width="30" height="30" fill="white" fill-opacity="0.01"/>
<defs>
<clipPath id="clip0">
<rect width="16.438" height="21.4718" fill="white" transform="translate(6.54419 4)"/>
</clipPath>
</defs>
</svg>
